<?xml version="1.0" standalone="no"?>
<!DOCTYPE svg PUBLIC "-//W3C//DTD SVG 20010904//EN"
 "http://www.w3.org/TR/2001/REC-SVG-20010904/DTD/svg10.dtd">
<svg version="1.0" xmlns="http://www.w3.org/2000/svg"
 width="274.000000pt" height="184.000000pt" viewBox="0 0 274.000000 184.000000"
 preserveAspectRatio="xMidYMid meet">
<metadata>
Created by potrace 1.15, written by Peter Selinger 2001-2017
</metadata>
<g transform="translate(0.000000,184.000000) scale(0.100000,-0.100000)"
fill="#DC143C" stroke="none">
<path d="M1215 1343 c-219 -274 -405 -506 -413 -515 -31 -37 -3 -45 177 -53
242 -10 275 -15 279 -42 2 -11 -33 -171 -78 -354 -44 -183 -80 -342 -78 -353
2 -10 8 -21 14 -23 6 -2 197 228 424 512 348 435 411 518 399 529 -10 9 -80
17 -229 25 -145 7 -218 15 -226 23 -10 10 6 89 72 358 47 190 83 354 82 364
-2 11 -8 21 -14 23 -6 2 -190 -220 -409 -494z"/>
<path d="M610 1265 c-283 -124 -526 -230 -539 -237 -60 -32 -80 -127 -39 -188
21 -30 75 -57 526 -253 277 -121 505 -217 507 -215 10 10 26 123 18 126 -107
41 -935 410 -935 416 0 5 192 93 427 195 l426 186 36 50 c20 28 51 71 70 98
19 26 31 47 26 47 -4 -1 -240 -102 -523 -225z"/>
<path d="M1666 1443 c-3 -16 -8 -44 -11 -63 l-6 -35 470 -210 c258 -116 470
-214 472 -220 1 -5 -195 -98 -435 -205 l-437 -195 -69 -95 c-38 -52 -69 -98
-70 -101 0 -4 249 105 553 241 610 272 597 265 597 355 0 69 -30 101 -140 150
-52 23 -278 124 -502 224 -223 99 -409 181 -411 181 -3 0 -8 -12 -11 -27z"/>
</g>
</svg>
